<svg xmlns="http://www.w3.org/2000/svg" xmlns:xlink="http://www.w3.org/1999/xlink" width="2000" zoomAndPan="magnify" viewBox="0 0 1500 1499.999933" height="2000" preserveAspectRatio="xMidYMid meet" version="1.0"><defs><g/><clipPath id="f134791509"><path d="M 26.636719 386.285156 L 1474 386.285156 L 1474 1131.339844 L 26.636719 1131.339844 Z M 26.636719 386.285156 " clip-rule="nonzero"/></clipPath><clipPath id="8d46624947"><path d="M 97.136719 386.285156 L 1402.863281 386.285156 C 1441.800781 386.285156 1473.363281 417.847656 1473.363281 456.785156 L 1473.363281 1060.839844 C 1473.363281 1099.777344 1441.800781 1131.339844 1402.863281 1131.339844 L 97.136719 1131.339844 C 58.199219 1131.339844 26.636719 1099.777344 26.636719 1060.839844 L 26.636719 456.785156 C 26.636719 417.847656 58.199219 386.285156 97.136719 386.285156 Z M 97.136719 386.285156 " clip-rule="nonzero"/></clipPath><clipPath id="7f8923a7a7"><path d="M 0.636719 0.285156 L 1447.601562 0.285156 L 1447.601562 745.339844 L 0.636719 745.339844 Z M 0.636719 0.285156 " clip-rule="nonzero"/></clipPath><clipPath id="651ae8fb36"><path d="M 71.136719 0.285156 L 1376.863281 0.285156 C 1415.800781 0.285156 1447.363281 31.847656 1447.363281 70.785156 L 1447.363281 674.839844 C 1447.363281 713.777344 1415.800781 745.339844 1376.863281 745.339844 L 71.136719 745.339844 C 32.199219 745.339844 0.636719 713.777344 0.636719 674.839844 L 0.636719 70.785156 C 0.636719 31.847656 32.199219 0.285156 71.136719 0.285156 Z M 71.136719 0.285156 " clip-rule="nonzero"/></clipPath><clipPath id="b191a62b86"><rect x="0" width="1448" y="0" height="746"/></clipPath><clipPath id="7cd863eebb"><rect x="0" width="1209" y="0" height="701"/></clipPath></defs><g clip-path="url(#f134791509)"><g clip-path="url(#8d46624947)"><g transform="matrix(1, 0, 0, 1, 26, 386)"><g clip-path="url(#b191a62b86)"><g clip-path="url(#7f8923a7a7)"><g clip-path="url(#651ae8fb36)"><path fill="#ffffff" d="M 0.636719 0.285156 L 1447.097656 0.285156 L 1447.097656 745.339844 L 0.636719 745.339844 Z M 0.636719 0.285156 " fill-opacity="1" fill-rule="nonzero"/></g></g></g></g></g></g><g transform="matrix(1, 0, 0, 1, 137, 362)"><g clip-path="url(#7cd863eebb)"><g fill="#414b52" fill-opacity="1"><g transform="translate(0.841662, 556.253869)"><g><path d="M 127.3125 -329.734375 L 11.46875 -329.734375 L 11.46875 -401.421875 L 324 -401.421875 L 324 -329.734375 L 207.59375 -329.734375 L 207.59375 0 L 127.3125 0 Z M 127.3125 -329.734375 "/></g></g></g><g fill="#414b52" fill-opacity="1"><g transform="translate(311.076452, 556.253869)"><g><path d="M 65.953125 137.625 C 59.453125 137.625 53.425781 137.238281 47.875 136.46875 C 42.332031 135.707031 37.460938 134.753906 33.265625 133.609375 C 28.671875 132.085938 24.273438 130.5625 20.078125 129.03125 L 28.671875 63.078125 C 30.960938 63.847656 33.445312 64.421875 36.125 64.796875 C 38.414062 65.179688 41.09375 65.46875 44.15625 65.65625 C 47.21875 65.851562 50.660156 65.953125 54.484375 65.953125 C 61.742188 65.953125 68.144531 64.898438 73.6875 62.796875 C 79.226562 60.691406 84.390625 57.15625 89.171875 52.1875 C 93.953125 47.21875 98.632812 40.523438 103.21875 32.109375 C 107.8125 23.703125 112.59375 13 117.5625 0 L 5.734375 -301.0625 L 91.75 -301.0625 L 143.359375 -157.703125 C 146.421875 -149.671875 148.617188 -142.019531 149.953125 -134.75 C 151.296875 -127.488281 152.347656 -121.1875 153.109375 -115.84375 C 153.878906 -109.34375 154.453125 -103.222656 154.828125 -97.484375 L 160.5625 -97.484375 C 160.1875 -103.222656 160.570312 -109.34375 161.71875 -115.84375 C 162.476562 -121.1875 163.625 -127.488281 165.15625 -134.75 C 166.6875 -142.019531 168.976562 -149.671875 172.03125 -157.703125 L 223.640625 -301.0625 L 306.796875 -301.0625 L 194.96875 2.875 C 186.175781 26.570312 177.191406 46.925781 168.015625 63.9375 C 158.847656 80.945312 149.003906 94.898438 138.484375 105.796875 C 127.972656 116.691406 116.789062 124.71875 104.9375 129.875 C 93.09375 135.039062 80.097656 137.625 65.953125 137.625 Z M 65.953125 137.625 "/></g></g></g><g fill="#414b52" fill-opacity="1"><g transform="translate(598.373367, 556.253869)"><g><path d="M 115.84375 8.609375 C 102.070312 8.609375 89.257812 6.21875 77.40625 1.4375 C 65.5625 -3.34375 55.429688 -9.84375 47.015625 -18.0625 C 38.609375 -26.28125 32.015625 -35.929688 27.234375 -47.015625 C 22.460938 -58.109375 20.078125 -70.15625 20.078125 -83.15625 C 20.078125 -95.769531 22.5625 -107.710938 27.53125 -118.984375 C 32.5 -130.265625 39.859375 -140.109375 49.609375 -148.515625 C 59.359375 -156.929688 71.207031 -163.53125 85.15625 -168.3125 C 99.113281 -173.09375 115.078125 -175.484375 133.046875 -175.484375 L 200.703125 -175.484375 L 200.703125 -189.234375 C 200.703125 -206.054688 196.398438 -218.957031 187.796875 -227.9375 C 179.203125 -236.925781 168.210938 -241.421875 154.828125 -241.421875 C 140.304688 -241.421875 129.507812 -238.171875 122.4375 -231.671875 C 115.363281 -225.171875 111.828125 -216.757812 111.828125 -206.4375 C 111.828125 -203.382812 111.921875 -201.09375 112.109375 -199.5625 C 112.296875 -198.03125 112.582031 -196.5 112.96875 -194.96875 L 41.28125 -194.96875 C 40.519531 -197.269531 39.757812 -199.753906 39 -202.421875 C 37.851562 -207.015625 37.28125 -212.5625 37.28125 -219.0625 C 37.28125 -230.53125 39.953125 -241.710938 45.296875 -252.609375 C 50.648438 -263.503906 58.390625 -273.0625 68.515625 -281.28125 C 78.648438 -289.5 90.984375 -296.1875 105.515625 -301.34375 C 120.046875 -306.507812 136.484375 -309.09375 154.828125 -309.09375 C 173.179688 -309.09375 189.90625 -306.128906 205 -300.203125 C 220.101562 -294.273438 233.101562 -286.054688 244 -275.546875 C 254.894531 -265.035156 263.304688 -252.515625 269.234375 -237.984375 C 275.160156 -223.453125 278.125 -207.585938 278.125 -190.390625 L 278.125 -87.734375 C 278.125 -69.390625 287.109375 -60.21875 305.078125 -60.21875 L 315.40625 -60.21875 L 315.40625 0 C 311.195312 1.144531 306.988281 2.289062 302.78125 3.4375 C 298.570312 4.207031 293.984375 4.972656 289.015625 5.734375 C 284.046875 6.492188 278.882812 6.875 273.53125 6.875 C 259.007812 6.875 247.734375 4.296875 239.703125 -0.859375 C 231.671875 -6.023438 225.554688 -11.851562 221.359375 -18.34375 C 216.765625 -25.613281 213.703125 -34.21875 212.171875 -44.15625 L 207.59375 -44.15625 C 202.238281 -34.21875 195.359375 -25.425781 186.953125 -17.78125 C 179.679688 -11.28125 170.3125 -5.257812 158.84375 0.28125 C 147.375 5.832031 133.039062 8.609375 115.84375 8.609375 Z M 135.90625 -57.34375 C 152.726562 -57.34375 166.96875 -63.078125 178.625 -74.546875 C 190.289062 -86.015625 197.648438 -99.96875 200.703125 -116.40625 L 138.78125 -116.40625 C 124.632812 -116.40625 114.210938 -113.347656 107.515625 -107.234375 C 100.828125 -101.117188 97.484375 -94.238281 97.484375 -86.59375 C 97.484375 -78.5625 100.632812 -71.675781 106.9375 -65.9375 C 113.25 -60.207031 122.90625 -57.34375 135.90625 -57.34375 Z M 135.90625 -57.34375 "/></g></g></g><g fill="#414b52" fill-opacity="1"><g transform="translate(902.873663, 556.253869)"><g><path d="M 173.75 8.609375 C 151.195312 8.609375 130.835938 5.070312 112.671875 -2 C 94.515625 -9.070312 79.03125 -19.394531 66.21875 -32.96875 C 53.414062 -46.539062 43.476562 -63.171875 36.40625 -82.859375 C 29.34375 -102.546875 25.8125 -125.007812 25.8125 -150.25 C 25.8125 -175.476562 29.34375 -197.9375 36.40625 -217.625 C 43.476562 -237.3125 53.515625 -253.941406 66.515625 -267.515625 C 79.515625 -281.085938 95.1875 -291.503906 113.53125 -298.765625 C 131.882812 -306.035156 152.34375 -309.671875 174.90625 -309.671875 C 193.632812 -309.671875 210.738281 -306.800781 226.21875 -301.0625 C 241.707031 -295.332031 254.800781 -287.59375 265.5 -277.84375 C 276.207031 -268.09375 284.523438 -256.8125 290.453125 -244 C 296.378906 -231.195312 299.34375 -217.722656 299.34375 -203.578125 C 299.34375 -198.609375 299.148438 -194.304688 298.765625 -190.671875 C 298.390625 -187.035156 297.816406 -183.691406 297.046875 -180.640625 L 295.328125 -172.03125 L 219.0625 -172.03125 C 219.4375 -173.5625 219.816406 -175.472656 220.203125 -177.765625 C 220.585938 -179.679688 220.96875 -181.976562 221.34375 -184.65625 C 221.726562 -187.332031 221.921875 -190.390625 221.921875 -193.828125 C 221.921875 -207.203125 217.425781 -218.378906 208.4375 -227.359375 C 199.457031 -236.347656 187.707031 -240.84375 173.1875 -240.84375 C 153.6875 -240.84375 137.816406 -233.578125 125.578125 -219.046875 C 113.347656 -204.523438 107.234375 -181.972656 107.234375 -151.390625 C 107.234375 -120.421875 113.921875 -97.484375 127.296875 -82.578125 C 140.679688 -67.671875 158.84375 -60.21875 181.78125 -60.21875 C 194.78125 -60.21875 206.054688 -62.128906 215.609375 -65.953125 C 225.171875 -69.773438 233.203125 -74.171875 239.703125 -79.140625 C 246.960938 -84.492188 253.460938 -90.800781 259.203125 -98.0625 L 299.34375 -45.875 C 291.3125 -35.550781 281.179688 -26.375 268.953125 -18.34375 C 258.628906 -11.46875 245.628906 -5.257812 229.953125 0.28125 C 214.273438 5.832031 195.539062 8.609375 173.75 8.609375 Z M 173.75 8.609375 "/></g></g></g></g></g></svg>